<?xml version="1.0" encoding="utf-8"?>
<!-- Generator: Adobe Illustrator 16.0.3, SVG Export Plug-In . SVG Version: 6.00 Build 0)  -->
<!DOCTYPE svg PUBLIC "-//W3C//DTD SVG 1.1//EN" "http://www.w3.org/Graphics/SVG/1.1/DTD/svg11.dtd">
<svg version="1.1" id="Layer_1" xmlns="http://www.w3.org/2000/svg" xmlns:xlink="http://www.w3.org/1999/xlink" x="0px" y="0px"
	 width="233.785px" height="40.746px" viewBox="0 0 233.785 40.746" enable-background="new 0 0 233.785 40.746"
	 xml:space="preserve">
<g>
	<g>
		<path fill="#DBECFF" d="M25.104,40.037L18.49,22.203l-2.185-6.022v23.856h-5.669V0.708h5.551l6.142,18.011l2.007,6.083V0.708h5.61
			v39.329H25.104z"/>
		<path fill="#DBECFF" d="M40.574,6.142v11.337h6.791v5.374h-6.791v17.184h-6.26V0.708h15.295v5.433L40.574,6.142L40.574,6.142z"/>
		<path fill="#DBECFF" d="M70.247,35.194c-0.453,1.144-1.083,2.126-1.89,2.953c-0.808,0.826-1.792,1.468-2.952,1.918
			c-1.162,0.453-2.451,0.681-3.868,0.681s-2.707-0.228-3.868-0.681c-1.161-0.45-2.146-1.092-2.952-1.918
			c-0.808-0.827-1.438-1.812-1.89-2.953c-0.453-1.142-0.679-2.399-0.679-3.778V9.33c0-1.338,0.226-2.578,0.679-3.72
			c0.452-1.141,1.082-2.126,1.89-2.953c0.807-0.827,1.791-1.476,2.952-1.949C58.83,0.236,60.12,0,61.537,0s2.706,0.236,3.868,0.708
			c1.16,0.473,2.145,1.122,2.952,1.949c0.807,0.827,1.437,1.812,1.89,2.953c0.452,1.143,0.679,2.382,0.679,3.72v22.085
			C70.926,32.794,70.699,34.054,70.247,35.194z M64.667,8.858c0-0.945-0.271-1.712-0.813-2.303c-0.541-0.59-1.313-0.886-2.316-0.886
			c-1.004,0-1.776,0.295-2.317,0.886c-0.542,0.591-0.813,1.358-0.813,2.303v23.03c0,0.945,0.271,1.713,0.813,2.303
			c0.541,0.592,1.313,0.887,2.317,0.887c1.003,0,1.775-0.295,2.316-0.887c0.542-0.59,0.813-1.357,0.813-2.303V8.858z"/>
		<path fill="#DBECFF" d="M89.908,40.001l-0.954-2.658c-0.55,1.154-1.354,2.01-2.414,2.566c-1.061,0.557-2.258,0.836-3.593,0.836
			c-1.295,0-2.463-0.218-3.503-0.649c-1.041-0.433-1.924-1.054-2.65-1.86c-0.727-0.807-1.286-1.762-1.678-2.863
			c-0.394-1.102-0.589-2.322-0.589-3.662V9.035c0-1.22,0.216-2.381,0.649-3.484c0.433-1.102,1.063-2.067,1.89-2.894
			c0.827-0.827,1.82-1.476,2.982-1.949C81.209,0.236,82.519,0,83.976,0c1.456,0,2.746,0.236,3.868,0.708
			c1.121,0.473,2.066,1.113,2.834,1.919c0.768,0.807,1.348,1.762,1.742,2.864c0.393,1.103,0.591,2.284,0.591,3.543v5.256h-5.965
			V8.68c0-0.827-0.256-1.535-0.768-2.126c-0.512-0.59-1.299-0.886-2.362-0.886c-1.023,0-1.801,0.305-2.332,0.914
			c-0.531,0.609-0.797,1.326-0.797,2.151v23.338c0,0.864,0.274,1.601,0.826,2.21c0.551,0.608,1.338,0.913,2.362,0.913
			c1.063,0,1.86-0.303,2.392-0.909c0.531-0.605,0.797-1.341,0.797-2.201v-6.986h-3.07v-4.724h9.212v19.628H89.908z"/>
		<path fill="#DBECFF" d="M112.319,40.214c-1.221,0-2.087-0.521-2.599-1.564c-0.512-1.043-0.768-2.333-0.768-3.867v-8.445
			c0-0.787-0.206-1.467-0.62-2.037c-0.413-0.569-1.053-0.855-1.919-0.855h-3.07v16.594h-6.26V0.708h10.039
			c1.102,0,2.126,0.158,3.07,0.473c0.945,0.315,1.762,0.788,2.451,1.417c0.688,0.63,1.229,1.428,1.624,2.392
			c0.393,0.965,0.59,2.117,0.59,3.455v6.968c0,1.338-0.306,2.48-0.915,3.425c-0.611,0.945-1.546,1.653-2.805,2.126
			c1.259,0.434,2.214,1.142,2.863,2.125c0.65,0.984,0.975,2.088,0.975,3.307v8.031c0,0.906,0.098,1.674,0.295,2.303
			c0.197,0.631,0.492,1.201,0.887,1.713v1.771H112.319z M108.718,8.622c0-1.692-0.709-2.539-2.126-2.539h-3.248v12.459h3.012
			c1.574,0,2.362-0.924,2.362-2.775V8.622z"/>
		<path fill="#DBECFF" d="M130.744,40.037l-1.005-7.677h-5.728l-1.182,7.677h-5.729l6.555-39.329h6.909l6.556,39.329H130.744z
			 M127.082,11.042l-2.303,16.062h4.251L127.082,11.042z"/>
		<path fill="#DBECFF" d="M155.102,22.587c-1.438,1.279-3.276,1.92-5.521,1.92h-3.779v15.529h-6.26V0.708h10.039
			c2.244,0,4.084,0.641,5.521,1.919c1.437,1.28,2.155,3.297,2.155,6.053v7.913C157.257,19.31,156.539,21.308,155.102,22.587z
			 M151.175,8.681c0-1.732-0.709-2.598-2.127-2.598H145.8v13.404h3.248c1.418,0,2.127-0.865,2.127-2.598V8.681z"/>
		<path fill="#DBECFF" d="M173.496,40.037V23.503h-6.613v16.533h-6.26V0.708h6.26v17.066h6.613V0.708h6.26v39.329H173.496z"/>
		<path fill="#DBECFF" d="M184.125,40.037V0.708h6.26v39.329H184.125z"/>
		<path fill="#DBECFF" d="M210.548,38.207c-1.516,1.692-3.729,2.539-6.644,2.539c-1.417,0-2.716-0.236-3.896-0.709
			c-1.182-0.473-2.186-1.131-3.012-1.979c-0.828-0.848-1.469-1.84-1.92-2.982c-0.453-1.142-0.68-2.382-0.68-3.72V9.389
			c0-1.338,0.227-2.578,0.68-3.72c0.451-1.141,1.092-2.135,1.92-2.982c0.826-0.846,1.83-1.506,3.012-1.979
			C201.189,0.236,202.488,0,203.905,0c2.913,0,5.128,0.847,6.644,2.539c1.516,1.693,2.273,3.859,2.273,6.496v5.669h-5.551V8.917
			c0-0.945-0.266-1.722-0.797-2.333c-0.531-0.61-1.35-0.916-2.451-0.916c-1.104,0-1.919,0.306-2.449,0.916
			c-0.531,0.611-0.798,1.368-0.798,2.273v23.03c0,0.905,0.267,1.663,0.798,2.272c0.53,0.611,1.348,0.916,2.449,0.916
			s1.92-0.305,2.451-0.916c0.531-0.609,0.797-1.388,0.797-2.332v-5.847h5.551v5.728C212.822,34.349,212.063,36.514,210.548,38.207z"
			/>
		<path fill="#DBECFF" d="M233.076,35.224c-0.473,1.201-1.121,2.215-1.949,3.041c-0.826,0.826-1.801,1.447-2.922,1.859
			c-1.123,0.414-2.332,0.621-3.633,0.621c-2.834,0-5.078-0.808-6.73-2.422c-1.653-1.613-2.48-3.816-2.48-6.613v-3.483h5.729v3.366
			c0,1.26,0.274,2.225,0.826,2.893c0.551,0.67,1.379,1.004,2.48,1.004c1.143,0,1.979-0.314,2.51-0.943
			c0.531-0.631,0.797-1.496,0.797-2.6c0-1.73-0.423-3.297-1.27-4.693c-0.848-1.397-2.096-2.981-3.75-4.754
			c-0.826-0.826-1.653-1.722-2.479-2.688c-0.828-0.964-1.576-1.987-2.244-3.07c-0.67-1.083-1.222-2.224-1.653-3.425
			c-0.435-1.2-0.649-2.43-0.649-3.69c0-1.338,0.188-2.588,0.561-3.75c0.375-1.161,0.945-2.174,1.714-3.041
			c0.769-0.865,1.722-1.555,2.862-2.067S223.273,0,224.809,0c2.638,0,4.744,0.827,6.317,2.48c1.574,1.653,2.362,3.838,2.362,6.554
			v3.543h-5.669V9.035c0-1.102-0.246-1.987-0.738-2.657c-0.492-0.669-1.25-1.004-2.272-1.004c-0.906,0-1.644,0.276-2.214,0.827
			c-0.571,0.552-0.856,1.338-0.856,2.362c0,0.945,0.107,1.801,0.324,2.569c0.217,0.768,0.541,1.506,0.976,2.214
			c0.433,0.708,0.994,1.447,1.684,2.214c0.688,0.768,1.484,1.644,2.392,2.628c1.929,2.007,3.522,4.036,4.782,6.083
			s1.891,4.311,1.891,6.791C233.785,32.636,233.548,34.023,233.076,35.224z"/>
	</g>
</g>
<rect y="0.699" fill="#F0B70F" width="6.252" height="6.252"/>
<g>
	<rect x="0.006" y="9.98" fill="#DBECFF" width="6.26" height="30.057"/>
</g>
</svg>
