<?xml version="1.0" encoding="utf-8"?>
<!-- Generator: Adobe Illustrator 16.0.3, SVG Export Plug-In . SVG Version: 6.00 Build 0)  -->
<!DOCTYPE svg PUBLIC "-//W3C//DTD SVG 1.1//EN" "http://www.w3.org/Graphics/SVG/1.1/DTD/svg11.dtd">
<svg version="1.1" id="Layer_1" xmlns="http://www.w3.org/2000/svg" xmlns:xlink="http://www.w3.org/1999/xlink" x="0px" y="0px"
	 width="389.812px" height="41.459px" viewBox="0 0 389.812 41.459" enable-background="new 0 0 389.812 41.459"
	 xml:space="preserve">
<g>
	<path fill="#FFFFFF" d="M109.063,1.226h13.803c17.712,0,23.051,11.968,23.051,18.969c0,11.567-8.203,19.757-21.811,19.757h-15.043
		V1.226z M122.555,28.885h1.613c4.539,0,8.265-3.107,8.265-7.734c0-5.135-3.289-8.863-9.878-8.863V28.885z M67.306,1.226h13.048
		l12.37,18.518h0.125V1.226l12.927-0.901v39.626h-12.68L80.354,21.264h-0.121v18.688l-12.927-0.025V1.226z M45.429,0.325v26.298
		c0,1.977,0.684,3.162,2.984,3.162c2.234,0,2.672-1.352,2.672-3.162V1.226l13.481-0.901v27.091c0,9.201-6.895,13.436-17.335,13.436
		c-9.139,0-15.29-4.799-15.29-13.322V1.226L45.429,0.325z M27.904,12.458c-2.735-0.734-6.4-1.409-9.135-1.409
		c-2.239,0-5.283,0-5.283,1.971c0,3.052,16.839,2.825,16.839,14.847c0,8.523-7.268,12.984-19.267,12.984
		c-4.223,0-7.018-0.51-10.628-1.131V28.656c3.544,0.682,7.274,1.129,10.628,1.129c3.542,0,5.224-0.564,5.224-2.09
		C16.283,23.975,0,25.387,0,13.02C0,4.61,7.083,0.325,16.592,0.325c3.854,0,8.144,0.395,11.312,1.015V12.458z"/>
	<path fill="#FFFFFF" d="M155.742,1.226h16.28l14.355,38.726l-14.922,0.104l-1.796-5.922h-11.682l-1.779,5.793l-14.501,0.025
		L155.742,1.226z M163.819,12.287h-0.124l-3.358,12.193h6.776L163.819,12.287z"/>
	<path fill="#FFFFFF" d="M387.334,12.416c-2.799-0.752-6.547-1.447-9.344-1.447c-2.287,0-5.402,0-5.402,2.02
		c0,3.121,17.223,2.886,17.223,15.185c0,8.723-7.434,13.285-19.703,13.285c-4.322,0-7.184-0.523-10.867-1.162V28.982
		c3.621,0.699,7.432,1.154,10.867,1.154c3.619,0,5.34-0.58,5.34-2.133c0-3.814-16.658-2.369-16.658-15.015
		C358.789,4.388,366.037,0,375.762,0c3.941,0,8.326,0.403,11.572,1.036V12.416z M329.293,40.533V0.924h24.223l2.732,10.622h-13.16
		v3.925h8.58v9.879h-8.58v4.207h14.117l-2.803,10.977H329.293z M309.395,0.924h12.525l5.373,39.461l-13.77-0.008l-1.967-17.627
		h-0.127l-8.275,18.146l-8.188-18.09h-0.125l-2.293,17.57l-13.428-0.014l5.67-39.439h12.588l6.037,14.668L309.395,0.924z M276.404,0
		v40.363l-13.795,0.014V0.924L276.404,0z M231.143,0.924h28.477v11.663h-8.137l0.021,27.81l-13.818-0.02v-27.79h-9.471
		L231.143,0.924z M200.549,40.852l-14.791-1.354l6.212-12.193l-13.11-25.852l14.73-1.128l5.092,12.981h0.125l4.412-12.981
		l13.92,1.128L200.549,40.852z"/>
</g>
<g>
</g>
<g>
</g>
<g>
</g>
<g>
</g>
<g>
</g>
<g>
</g>
<g>
</g>
<g>
</g>
<g>
</g>
<g>
</g>
<g>
</g>
<g>
</g>
<g>
</g>
<g>
</g>
<g>
</g>
</svg>
