<?xml version="1.0" encoding="utf-8"?>
<!-- Generator: Adobe Illustrator 16.0.3, SVG Export Plug-In . SVG Version: 6.00 Build 0)  -->
<!DOCTYPE svg PUBLIC "-//W3C//DTD SVG 1.1//EN" "http://www.w3.org/Graphics/SVG/1.1/DTD/svg11.dtd">
<svg version="1.1" id="Layer_1" xmlns="http://www.w3.org/2000/svg" xmlns:xlink="http://www.w3.org/1999/xlink" x="0px" y="0px"
	 width="61.729px" height="40.526px" viewBox="0 0 61.729 40.526" enable-background="new 0 0 61.729 40.526" xml:space="preserve">
<path fill="#FFFFFF" d="M27.904,12.133c-2.735-0.734-6.4-1.409-9.135-1.409c-2.239,0-5.283,0-5.283,1.971
	c0,3.052,16.839,2.825,16.839,14.847c0,8.523-7.268,12.984-19.267,12.984c-4.223,0-7.018-0.51-10.628-1.131V28.331
	c3.544,0.682,7.274,1.129,10.628,1.129c3.542,0,5.224-0.564,5.224-2.089C16.283,23.65,0,25.062,0,12.695C0,4.286,7.083,0,16.592,0
	c3.854,0,8.144,0.395,11.312,1.015V12.133z"/>
<polygon fill="#FFFFFF" points="33.254,0.599 61.729,0.599 61.729,12.262 53.594,12.262 53.614,40.071 39.797,40.052 39.797,12.262 
	30.326,12.262 "/>
<g>
</g>
<g>
</g>
<g>
</g>
<g>
</g>
<g>
</g>
<g>
</g>
<g>
</g>
<g>
</g>
<g>
</g>
<g>
</g>
<g>
</g>
<g>
</g>
<g>
</g>
<g>
</g>
<g>
</g>
</svg>
